<?xml version="1.0" encoding="utf-8"?>
<!-- Generator: Adobe Illustrator 19.2.1, SVG Export Plug-In . SVG Version: 6.00 Build 0)  -->
<svg version="1.1" id="Layer_1" xmlns="http://www.w3.org/2000/svg" xmlns:xlink="http://www.w3.org/1999/xlink" x="0px" y="0px"
	 viewBox="0 0 24 24" enable-background="new 0 0 24 24" xml:space="preserve">
<g>
	<rect fill="none" width="24" height="24"/>
	<path fill="#3D3E40" d="M22,7H3v11H2V6h20V7z M20,5H1v11H0V4h20V5z M14,11c-1.7,0-3,1.3-3,3s1.3,3,3,3s3-1.3,3-3S15.7,11,14,11z
		 M14.1,15.5v0.3h-0.3v-0.3c-0.3,0-0.6-0.1-0.9-0.2l0.1-0.5c0.3,0.1,0.7,0.2,1,0.2c0.3-0.1,0.4-0.4,0-0.6c-0.3-0.1-1.1-0.2-1.1-1
		c0-0.4,0.3-0.8,0.9-0.9v-0.3h0.3v0.3c0.2,0,0.5,0,0.7,0.1l-0.1,0.5C14.5,13,14.2,12.9,14,13c-0.4,0-0.5,0.4-0.2,0.6
		c0.5,0.2,1.2,0.4,1.2,1.1C15,15.1,14.6,15.4,14.1,15.5L14.1,15.5z M4,8v12h20V8H4z M22,16c-1,0.4-1.4,1-1.8,2H7.8
		C7.4,17,7,16.4,6,16v-4c1-0.4,1.4-1,1.8-2h12.4c0.4,1,0.9,1.6,1.8,2V16L22,16z"/>
</g>
</svg>
