<?xml version="1.0" encoding="utf-8"?>
<!-- Generator: Adobe Illustrator 19.2.1, SVG Export Plug-In . SVG Version: 6.00 Build 0)  -->
<svg version="1.1" id="Layer_1" xmlns="http://www.w3.org/2000/svg" xmlns:xlink="http://www.w3.org/1999/xlink" x="0px" y="0px"
	 viewBox="0 0 24 24" enable-background="new 0 0 24 24" xml:space="preserve">
<g>
	<path fill="#FFFFFF" d="M20,21.2c0,0.3,0,0.5,0,0.8H0c0-0.3,0-0.6,0-0.8c0-2.2,0.1-3.5,2.6-4.1c2.8-0.6,5.6-1.2,4.2-3.7
		C2.9,6.1,5.8,2,10,2s7,4,3.1,11.4c-1.3,2.4,1.4,3,4.2,3.7C19.9,17.7,20,19,20,21.2z M24,4h-7v2h7V4z M24,8h-7v2h7V8z M24,12h-7v2h7
		V12z"/>
	<rect fill="none" width="24" height="24"/>
</g>
</svg>
