<?xml version="1.0" encoding="utf-8"?>
<!-- Generator: Adobe Illustrator 19.2.1, SVG Export Plug-In . SVG Version: 6.00 Build 0)  -->
<svg version="1.1" id="Layer_1" xmlns="http://www.w3.org/2000/svg" xmlns:xlink="http://www.w3.org/1999/xlink" x="0px" y="0px"
	 viewBox="0 0 24 24" enable-background="new 0 0 24 24" xml:space="preserve">
<g>
	<path fill="#FFFFFF" d="M22,13V0H2v24h8.4c4.9,0,3.3-8,3.3-8C16.8,16.7,22,16.4,22,13z M18,6H6V5h12V6z M18,9H6V8h12V9z M18,12H6
		v-1h12V12z M15.9,18.2c2,0.5,4.8-0.3,6.1-1.2c-1.5,2-5.2,5.7-7.4,6.9C15.7,22.8,16.1,19.7,15.9,18.2L15.9,18.2z"/>
	<rect fill="none" width="24" height="24"/>
</g>
</svg>
