<?xml version="1.0" encoding="utf-8"?>
<!-- Generator: Adobe Illustrator 19.2.1, SVG Export Plug-In . SVG Version: 6.00 Build 0)  -->
<svg version="1.1" id="Layer_1" xmlns="http://www.w3.org/2000/svg" xmlns:xlink="http://www.w3.org/1999/xlink" x="0px" y="0px"
	 viewBox="0 0 166 48" enable-background="new 0 0 166 48" xml:space="preserve">
<g>
	<path id="Path" sketch:type="MSShapeGroup" fill="#FFFFFF" d="M24.8,48.1h-7.1c-3,0-5.6-1.5-7.1-3.9c-0.1-0.1-0.1-0.3-0.2-0.4
		L1.3,28.3L1,27.8c-0.6-1.2-1-2.4-1-3.8c0-1.4,0.4-2.7,1-3.8l0.3-0.5c0,0,8.8-15.2,9.1-15.6c2.3-3.7,5.3-4.2,7.7-4.2h18.3
		c3.1,0,5.9,1.7,7.3,4.3l5.7,9.6l-3.2,2.4L42,15.2l-3.6-6.4l-5.6,1l-0.1,0.8L31.8,17l-3.6,2.3l-7.1-1.9l-3.3,4.7l4.4,5.8l-0.9,4.2
		l-6.4,3.6l1,5.6l0.8,0.1l6.4,0.9l2.3,3.6L24.8,48.1z M41.5,41.9c-4.3,0.8-8.5-2.1-9.3-6.5c-0.8-4.4,2.1-8.5,6.5-9.3
		s8.5,2.1,9.3,6.5C48.7,37,45.8,41.2,41.5,41.9z"/>
	<path id="MASPA" sketch:type="MSShapeGroup" fill="#FFFFFF" d="M64.6,15.2h4.9l4,6.5l4-6.5h4.9V32h-4.6v-9.7L73.6,29h-0.1l-4.3-6.6
		V32h-4.6V15.2z M98.4,25.4l-1.9-4.8l-1.9,4.8H98.4z M94.3,15h4.5l7.2,17h-5l-1.2-3h-6.5l-1.2,3h-4.9L94.3,15z M117.2,32.3
		c-1.5,0-2.9-0.2-4.3-0.7c-1.4-0.5-2.6-1.2-3.6-2.1l2.6-3.1c1.7,1.4,3.5,2,5.5,2c0.6,0,1.1-0.1,1.4-0.3c0.3-0.2,0.5-0.5,0.5-0.9v0
		c0-0.2,0-0.3-0.1-0.5c-0.1-0.1-0.2-0.3-0.4-0.4s-0.5-0.3-0.9-0.4c-0.4-0.1-0.8-0.2-1.4-0.4c-0.9-0.2-1.7-0.4-2.5-0.7
		c-0.8-0.2-1.4-0.6-2-1c-0.6-0.4-1-0.9-1.3-1.5c-0.3-0.6-0.5-1.3-0.5-2.2v0c0-0.8,0.1-1.5,0.4-2.2c0.3-0.7,0.7-1.2,1.3-1.7
		c0.6-0.5,1.3-0.9,2.1-1.1c0.8-0.3,1.7-0.4,2.7-0.4c1.4,0,2.7,0.2,3.9,0.6c1.1,0.4,2.2,0.9,3.1,1.7l-2.3,3.3c-0.8-0.5-1.6-1-2.4-1.2
		c-0.8-0.3-1.6-0.4-2.3-0.4c-0.6,0-1,0.1-1.3,0.3c-0.3,0.2-0.4,0.5-0.4,0.8v0c0,0.2,0,0.4,0.1,0.5c0.1,0.1,0.2,0.3,0.5,0.4
		c0.2,0.1,0.5,0.2,0.9,0.4c0.4,0.1,0.9,0.2,1.4,0.4c1,0.2,1.8,0.5,2.6,0.7c0.8,0.3,1.4,0.6,2,1c0.5,0.4,1,0.9,1.3,1.5
		c0.3,0.6,0.4,1.3,0.4,2v0c0,0.9-0.2,1.6-0.5,2.3c-0.3,0.7-0.8,1.3-1.4,1.7c-0.6,0.5-1.3,0.8-2.1,1.1S118.3,32.3,117.2,32.3
		L117.2,32.3z M136.2,23.5c0.8,0,1.5-0.2,2-0.6c0.5-0.4,0.7-0.9,0.7-1.6v0c0-0.7-0.2-1.3-0.7-1.7c-0.5-0.4-1.1-0.6-2-0.6H134v4.5
		H136.2z M129.3,15.2h7.2c1.1,0,2,0.1,2.9,0.4c0.9,0.3,1.6,0.7,2.2,1.2c0.6,0.5,1.1,1.1,1.4,1.9c0.3,0.7,0.5,1.6,0.5,2.5v0
		c0,1-0.2,1.9-0.5,2.6s-0.9,1.4-1.5,1.9s-1.4,0.9-2.3,1.2c-0.9,0.3-1.9,0.4-2.9,0.4H134V32h-4.7V15.2z M158.4,25.4l-1.9-4.8
		l-1.9,4.8H158.4z M154.3,15h4.5l7.2,17h-5l-1.2-3h-6.5l-1.2,3h-4.9L154.3,15z"/>
</g>
</svg>
