<?xml version="1.0" encoding="utf-8"?>
<!-- Generator: Adobe Illustrator 19.2.1, SVG Export Plug-In . SVG Version: 6.00 Build 0)  -->
<svg version="1.1" id="Layer_1" xmlns:sketch="http://www.bohemiancoding.com/sketch/ns"
	 xmlns="http://www.w3.org/2000/svg" xmlns:xlink="http://www.w3.org/1999/xlink" x="0px" y="0px" viewBox="0 0 48 48"
	 style="enable-background:new 0 0 48 48;" xml:space="preserve">
<style type="text/css">
	.st0{fill:#FFFFFF;}
	.st1{fill:none;}
</style>
<title>Imported Layers</title>
<desc>Created with Sketch.</desc>
<g id="Page-2" sketch:type="MSPage">
	<g id="msp-factoryOwnersSignUp" transform="translate(-209.000000, -230.000000)" sketch:type="MSArtboardGroup">
		<path id="Imported-Layers" sketch:type="MSShapeGroup" class="st0" d="M220.4,277.8h-9c-0.4,0-0.9-0.2-1.2-0.5s-0.5-0.7-0.5-1.2
			l1.3-44.4c0-0.9,0.7-1.6,1.6-1.6l5.8,0.1c0.9,0,1.6,0.7,1.6,1.6l0.7,23.4l9.5-5.9c0.5-0.3,1.1-0.3,1.6,0s0.8,0.8,0.8,1.4v4.2
			l9.6-5.6c0.5-0.3,1.1-0.3,1.6,0s0.8,0.8,0.8,1.4v4.2l9.3-5.6c0.5-0.3,1.1-0.3,1.6,0s0.8,0.8,0.8,1.4v25.5c0,0.9-0.7,1.6-1.6,1.6
			L220.4,277.8L220.4,277.8z M217.7,274.3l-1.2-40.7h-2.3l-1.2,41.1h4.7V274.3L217.7,274.3z M229.7,253.6l-9,5.1v15.4v1h9v-17.4
			V253.6z M241.7,253.6l-9,5.1v16.5h9v-17.4V253.6z M244.7,258.8v16.5h9v-21.6L244.7,258.8z M247.7,261.3h3v3h-3V261.3z
			 M235.7,261.3h3v3h-3V261.3z M223.7,261.3h3v3h-3V261.3z"/>
	</g>
</g>
<rect class="st1" width="48" height="48"/>
</svg>
