<?xml version="1.0" encoding="utf-8"?>
<!-- Generator: Adobe Illustrator 19.2.1, SVG Export Plug-In . SVG Version: 6.00 Build 0)  -->
<svg version="1.1" id="Layer_1" xmlns:sketch="http://www.bohemiancoding.com/sketch/ns"
	 xmlns="http://www.w3.org/2000/svg" xmlns:xlink="http://www.w3.org/1999/xlink" x="0px" y="0px" viewBox="0 0 48 48"
	 style="enable-background:new 0 0 48 48;" xml:space="preserve">
<style type="text/css">
	.st0{fill:none;}
	.st1{fill:#FFFFFF;}
</style>
<rect class="st0" width="48" height="48"/>
<title>Imported Layers</title>
<desc>Created with Sketch.</desc>
<g id="Page-2" sketch:type="MSPage">
	<g id="msp-partSupplierSignUp" transform="translate(-209.000000, -231.000000)" sketch:type="MSArtboardGroup">
		<path id="Imported-Layers" sketch:type="MSShapeGroup" class="st1" d="M257,277.3c0,1-0.7,1.7-1.7,1.7h-44.7
			c-0.9,0-1.7-0.8-1.7-1.7v-32.7c0-0.2,0-0.3,0.1-0.4c0.1-0.2,0.1-0.3,0.2-0.4l6.7-11.9c0.3-0.5,0.8-0.9,1.4-0.9h31.3
			c0.6,0,1.1,0.3,1.4,0.9l6.6,11.7c0.2,0.3,0.3,0.7,0.3,1.1C257,244.6,257,277.3,257,277.3z M254.1,246h-14v-3h12.4l-4.7-9h-12.6
			l1.9,8.8V257h-8v-14.1l1.9-8.8h-12.6l-4.7,9h12.4v3h-14v30h42V246z M218.1,267h12v3h-12V267z M218.1,261h6v3h-6V261z"/>
	</g>
</g>
</svg>
