<?xml version="1.0" encoding="utf-8"?>
<!-- Generator: Adobe Illustrator 19.2.1, SVG Export Plug-In . SVG Version: 6.00 Build 0)  -->
<svg version="1.1" id="Layer_1" xmlns="http://www.w3.org/2000/svg" xmlns:xlink="http://www.w3.org/1999/xlink" x="0px" y="0px"
	 viewBox="0 0 24 24" style="enable-background:new 0 0 24 24;" xml:space="preserve">
<style type="text/css">
	.st0{fill:#3D3E40;}
</style>
<path class="st0" d="M11.3,19.6C11,20,10.4,20.1,10,19.8c0,0,0,0,0,0c-0.4-0.3-0.5-0.9-0.2-1.3c0,0,0,0,0,0l1.1-1.5
	c0.3-0.4,0.9-0.5,1.3-0.2c0,0,0,0,0,0c0.4,0.3,0.5,0.9,0.2,1.3L11.3,19.6z M10.5,16.8c0.3-0.4,0.2-1-0.3-1.3
	c-0.4-0.3-0.9-0.2-1.3,0.2l-1.1,1.5c-0.3,0.4-0.3,1,0.1,1.3c0.4,0.3,1,0.3,1.3-0.1c0,0,0-0.1,0.1-0.1C9.4,18.2,10.5,16.8,10.5,16.8z
	 M8.6,15.4c0.3-0.4,0.2-1-0.2-1.3c-0.4-0.3-1-0.2-1.3,0.2L6,15.7c-0.3,0.4-0.2,1,0.2,1.3c0,0,0,0,0,0c0.4,0.3,1,0.2,1.3-0.2
	c0,0,0,0,0,0L8.6,15.4L8.6,15.4z M6.7,14c0.3-0.4,0.2-1-0.2-1.3c0,0,0,0,0,0c-0.4-0.3-1-0.2-1.3,0.2c0,0,0,0,0,0l-1.1,1.5
	c-0.3,0.4-0.2,1,0.2,1.3c0.4,0.3,1,0.2,1.3-0.2L6.7,14z M24,5.6c0,0-1.6,0.3-2.7,0.5c-2.1,0.3-4.1-0.4-6.4-1.6C14.5,4.2,14,4,13.5,4
	c-0.5,0-0.9,0.2-1.3,0.6c-1.4,1.5-2.2,2.9-3.8,3.9C7.6,9,8.6,10.4,10.3,9.8C11.2,9.5,12,8.9,13,8.2c0.8-0.6,1.2-0.5,1.9,0.1
	c1.2,1.2,5.4,5.3,5.4,5.3c1.3-0.8,2.4-1.3,3.7-1.8L24,5.6L24,5.6z M13.5,18.2c-0.2,0.5-0.6,1-1,1.5c0.3,0.2,0.6,0.3,0.9,0.3
	c0.7,0,1.2-0.7,0.5-1.3L13.5,18.2L13.5,18.2z M20,14.7c-1.1-1.1-4.7-4.7-5.8-5.7c-0.2-0.2-0.4-0.2-0.6,0c-0.6,0.5-2.1,1.5-2.9,1.8
	c-1.7,0.6-3.1-0.2-3.4-1.4C7,8.7,7.3,8,7.9,7.6c1-0.6,1.7-1.4,2.5-2.4C9.7,4.7,9,4.5,8.4,4.5c-1.7,0-3.3,1.4-5.3,1.2
	C1.7,5.7,0,5.4,0,5.4v6.3c1.5,0.3,2.5,0.5,3.9,1.2l0.5-0.6c0.6-0.9,1.9-1,2.7-0.4c0.3,0.2,0.6,0.6,0.7,1c0.9,0,1.7,0.6,1.9,1.4
	c0.8,0,1.6,0.5,1.9,1.4c1.2,0,2,0.9,2,2l1.2,1.2c0.4,0.4,1,0.4,1.3,0c0.4-0.4,0.4-1,0-1.3l0,0l-1.7-1.7c-0.2-0.2,0.1-0.6,0.3-0.3
	l2,2c0.4,0.4,1,0.4,1.3,0c0.4-0.4,0.4-1,0-1.3l0,0l-2.5-2.5c-0.2-0.2,0.1-0.6,0.3-0.3l2.7,2.7c0.4,0.4,1,0.4,1.3,0c0,0,0,0,0,0
	C20.3,15.7,20.3,15.1,20,14.7L20,14.7z"/>
</svg>
