<?xml version="1.0" encoding="utf-8"?>
<!-- Generator: Adobe Illustrator 19.2.1, SVG Export Plug-In . SVG Version: 6.00 Build 0)  -->
<svg version="1.1" id="Layer_1" xmlns="http://www.w3.org/2000/svg" xmlns:xlink="http://www.w3.org/1999/xlink" x="0px" y="0px"
	 viewBox="0 0 24 24" enable-background="new 0 0 24 24" xml:space="preserve">
<g>
	<circle fill="#9DA1A6" cx="12" cy="12" r="12"/>
	<path fill="#FFFDFD" d="M17.3,18c0.4,0,0.7-0.3,0.7-0.7v-1.5c0-0.3-0.2-0.5-0.4-0.6c-3.2-1.2-4-1.8-4.1-2v-0.4
		c0.4-0.4,0.6-0.9,0.8-1.5c0.2-0.2,0.4-0.5,0.4-0.7c0-0.3,0-0.6-0.2-0.8V8.5c0-1.6-0.8-2.5-2.6-2.5c-1.7,0-2.6,0.9-2.6,2.5v1.2
		c-0.2,0.2-0.2,0.5-0.2,0.8s0.2,0.6,0.4,0.7c0.2,0.6,0.5,1.1,0.8,1.5v0.4c-0.1,0.2-0.8,0.7-4,2C6.2,15.4,6,15.6,6,15.9v1.5
		C6,17.7,6.3,18,6.7,18H17.3z"/>
</g>
</svg>
