<?xml version="1.0" standalone="no"?>
<!DOCTYPE svg PUBLIC "-//W3C//DTD SVG 20010904//EN"
 "http://www.w3.org/TR/2001/REC-SVG-20010904/DTD/svg10.dtd">
<svg version="1.0" xmlns="http://www.w3.org/2000/svg"
 width="700.000000pt" height="700.000000pt" viewBox="0 0 700.000000 700.000000"
 preserveAspectRatio="xMidYMid meet">
<metadata>
Created by potrace 1.11, written by Peter Selinger 2001-2013
</metadata>
<g transform="translate(0.000000,700.000000) scale(0.100000,-0.100000)"
fill="#000000" stroke="none">
<path d="M2599 6296 c-2 -2 -24 -6 -49 -9 -130 -15 -282 -70 -392 -143 -87
-58 -196 -164 -260 -254 -44 -62 -223 -353 -302 -490 -20 -36 -41 -72 -46 -80
-5 -8 -36 -60 -68 -115 -32 -55 -76 -129 -97 -165 -21 -36 -43 -74 -49 -85
-12 -21 -70 -118 -86 -145 -5 -8 -49 -85 -99 -170 -49 -85 -97 -169 -107 -187
-11 -17 -36 -62 -58 -100 -21 -37 -51 -88 -66 -113 -15 -25 -45 -76 -67 -115
-23 -38 -59 -101 -82 -139 -93 -157 -141 -334 -136 -503 3 -142 31 -257 90
-375 13 -27 21 -48 18 -48 -3 0 1 -8 9 -17 8 -10 62 -97 118 -193 57 -96 155
-263 218 -370 64 -107 143 -242 177 -300 34 -58 135 -229 225 -380 89 -151
171 -288 180 -305 9 -16 45 -77 80 -135 34 -58 76 -130 93 -160 111 -200 316
-370 540 -446 39 -13 83 -27 97 -29 14 -3 48 -9 75 -14 60 -11 1241 -15 1248
-4 3 4 20 76 38 159 l32 151 -30 39 c-132 167 -266 341 -272 352 -9 15 -31 18
-206 27 -66 3 -154 7 -195 10 -153 9 -287 16 -364 20 -43 2 -82 7 -86 12 -4 4
-40 130 -79 278 -40 149 -78 289 -86 312 l-14 43 127 83 c567 371 592 389 593
416 0 14 2 33 4 43 2 9 10 72 20 140 9 67 18 134 20 148 2 14 7 50 10 80 4 30
9 58 11 62 3 4 -4 15 -14 25 -10 10 -51 56 -92 103 -41 47 -77 87 -80 90 -3 3
-35 38 -70 79 -36 41 -78 89 -95 106 -16 18 -41 45 -55 61 -14 16 -53 61 -87
100 -35 39 -63 74 -63 77 0 15 315 570 326 574 7 2 195 -34 418 -81 l406 -86
195 148 c107 81 196 154 199 162 3 8 8 65 11 125 3 61 7 144 9 185 3 41 7 127
11 190 5 97 13 234 19 314 1 16 27 27 156 62 85 24 164 46 175 49 18 4 80 21
255 68 30 9 57 12 60 8 3 -5 68 -104 145 -222 269 -411 319 -483 340 -486 11
-1 42 -5 69 -8 27 -4 58 -8 69 -11 11 -2 43 -6 71 -9 28 -3 83 -11 121 -16
148 -22 159 -22 181 -2 12 10 59 53 105 95 46 42 96 87 112 100 15 13 27 27
27 30 0 4 -32 59 -70 123 -39 64 -79 130 -89 148 -10 18 -87 147 -171 287 -84
140 -161 270 -172 289 -139 245 -334 413 -568 489 -153 50 -145 50 -1401 51
-647 0 -1178 -1 -1180 -3z"/>
<path d="M5369 3466 c-2 -2 -24 -6 -49 -9 -203 -25 -384 -113 -529 -256 -118
-116 -187 -226 -234 -376 -32 -103 -39 -148 -42 -270 -3 -104 23 -259 59 -355
17 -44 93 -190 105 -200 3 -3 18 -21 32 -40 161 -215 441 -352 717 -351 145 1
240 20 371 75 268 113 487 375 548 656 12 57 15 87 19 185 15 449 -301 840
-751 930 -34 7 -241 16 -246 11z"/>
</g>
</svg>
