<?xml version="1.0" encoding="utf-8"?>
<!-- Generator: Adobe Illustrator 19.2.1, SVG Export Plug-In . SVG Version: 6.00 Build 0)  -->
<svg version="1.1" id="Layer_1" xmlns="http://www.w3.org/2000/svg" xmlns:xlink="http://www.w3.org/1999/xlink" x="0px" y="0px"
	 viewBox="0 0 24 24" enable-background="new 0 0 24 24" xml:space="preserve">
<g>
	<path fill="#FFFFFF" d="M10,19.5c0,0.8-0.7,1.5-1.5,1.5S7,20.3,7,19.5S7.7,18,8.5,18S10,18.7,10,19.5z M13.5,18
		c-0.8,0-1.5,0.7-1.5,1.5s0.7,1.5,1.5,1.5s1.5-0.7,1.5-1.5S14.3,18,13.5,18z M19.8,3l-3.4,12h-2.1l2.5-9H0l4.6,11h13.2l3.5-12h1.9
		L24,3H19.8z"/>
	<rect fill="none" width="24" height="24"/>
</g>
</svg>
