<?xml version="1.0" encoding="utf-8"?>
<!-- Generator: Adobe Illustrator 19.0.0, SVG Export Plug-In . SVG Version: 6.00 Build 0)  -->
<svg version="1.1" id="Layer_1" xmlns:sketch="http://www.bohemiancoding.com/sketch/ns"
	 xmlns="http://www.w3.org/2000/svg" xmlns:xlink="http://www.w3.org/1999/xlink" x="0px" y="0px" viewBox="-281 373 48 48"
	 style="enable-background:new -281 373 48 48;" xml:space="preserve">
<style type="text/css">
	.st0{fill:none;}
	.st1{fill:#4C5159;}
</style>
<rect x="-281" y="373" class="st0" width="48" height="48"/>
<title>Imported Layers</title>
<desc>Created with Sketch.</desc>
<g id="Page-2" sketch:type="MSPage">
	<g id="msp-partSupplierSignUp" transform="translate(-209.000000, -231.000000)" sketch:type="MSArtboardGroup">
		<path id="Imported-Layers" sketch:type="MSShapeGroup" class="st1" d="M-24,650.3c0,1-0.7,1.7-1.7,1.7h-44.7
			c-0.9,0-1.7-0.8-1.7-1.7v-32.7c0-0.2,0-0.3,0.1-0.4c0.1-0.2,0.1-0.3,0.2-0.4l6.7-11.9c0.3-0.5,0.8-0.9,1.4-0.9h31.3
			c0.6,0,1.1,0.3,1.4,0.9l6.6,11.7c0.2,0.3,0.3,0.7,0.3,1.1C-24,617.6-24,650.3-24,650.3z M-27,619h-14v-3h12.4l-4.7-9h-12.6
			l1.9,8.8V630h-8v-14.1l1.9-8.8h-12.6l-4.7,9H-55v3h-14v30h42V619z M-63,640h12v3h-12V640z M-63,634h6v3h-6V634z"/>
	</g>
</g>
</svg>
