<?xml version="1.0" encoding="utf-8"?>
<!-- Generator: Adobe Illustrator 19.0.0, SVG Export Plug-In . SVG Version: 6.00 Build 0)  -->
<svg version="1.1" id="Layer_1" xmlns:sketch="http://www.bohemiancoding.com/sketch/ns"
	 xmlns="http://www.w3.org/2000/svg" xmlns:xlink="http://www.w3.org/1999/xlink" x="0px" y="0px" viewBox="-282.5 373 48 48"
	 style="enable-background:new -282.5 373 48 48;" xml:space="preserve">
<style type="text/css">
	.st0{fill:#4C5159;}
	.st1{fill:none;}
</style>
<title>Imported Layers</title>
<desc>Created with Sketch.</desc>
<g id="Page-2" sketch:type="MSPage">
	<g id="msp-factoryOwnersSignUp" transform="translate(-209.000000, -230.000000)" sketch:type="MSArtboardGroup">
		<path id="Imported-Layers" sketch:type="MSShapeGroup" class="st0" d="M-62.2,650.8c0,0-9,0-9,0c-0.4,0-0.9-0.2-1.2-0.5
			c-0.3-0.3-0.5-0.7-0.5-1.2l1.3-44.4c0-0.9,0.7-1.6,1.6-1.6c0,0,5.8,0.1,5.8,0.1c0.9,0,1.6,0.7,1.6,1.6l0.7,23.4l9.5-5.9
			c0.5-0.3,1.1-0.3,1.6,0c0.5,0.3,0.8,0.8,0.8,1.4v4.2l9.6-5.6c0.5-0.3,1.1-0.3,1.6,0c0.5,0.3,0.8,0.8,0.8,1.4v4.2l9.3-5.6
			c0.5-0.3,1.1-0.3,1.6,0c0.5,0.3,0.8,0.8,0.8,1.4v25.5c0,0.9-0.7,1.6-1.6,1.6H-62.2z M-64.9,647.2l-1.2-40.7l-2.3,0l-1.2,41.1h4.7
			V647.2L-64.9,647.2z M-52.9,626.6l-9,5.1v15.4l0,1h9v-17.4V626.6z M-40.9,626.6l-9,5.1v16.5h9v-17.4V626.6z M-37.9,631.7v16.5h9
			v-21.6L-37.9,631.7z M-34.9,634.2h3v3h-3V634.2z M-46.9,634.2h3v3h-3V634.2z M-58.9,634.2h3v3h-3V634.2z"/>
	</g>
</g>
<rect x="-282.5" y="373.2" class="st1" width="48" height="48"/>
</svg>
