<?xml version="1.0" encoding="utf-8"?>
<!-- Generator: Adobe Illustrator 19.2.1, SVG Export Plug-In . SVG Version: 6.00 Build 0)  -->
<svg version="1.1" id="Layer_1" xmlns:sketch="http://www.bohemiancoding.com/sketch/ns"
	 xmlns="http://www.w3.org/2000/svg" xmlns:xlink="http://www.w3.org/1999/xlink" x="0px" y="0px" viewBox="0 0 108 96"
	 style="enable-background:new 0 0 108 96;" xml:space="preserve">
<style type="text/css">
	.st0{fill:#43BF43;}
	.st1{fill:#FFFFFF;}
</style>
<title>Path</title>
<desc>Created with Sketch.</desc>
<g id="Page-2" sketch:type="MSPage">
	<g id="msp-mainPage" transform="translate(-646.000000, -315.000000)" sketch:type="MSArtboardGroup">
		<g id="thanks" sketch:type="MSLayerGroup">
			<g id="Group" transform="translate(460.000000, 315.000000)" sketch:type="MSShapeGroup">
				<g id="Path-_x2B_-Imported-Layers" transform="translate(186.000000, 0.000000)">
					<path id="Path" class="st0" d="M2.5,39.3l-0.6,1C0.7,42.5,0,45.2,0,47.9s0.7,5.3,1.9,7.6l0.6,1l18.2,30.8
						c0.1,0.3,0.3,0.6,0.4,0.9c3,4.7,8.2,7.7,14.2,7.7h37.4c6,0,11.2-3.1,14.2-7.7c0.1-0.3,0.3-0.6,0.4-0.9l18.2-31
						c0.1-0.3,0.3-0.6,0.4-0.7c1.2-2.3,1.9-5,1.9-7.7s-0.7-5.4-1.9-7.6c-0.1-0.3-0.3-0.6-0.4-0.9l-18.3-31C84.4,3.4,78.9,0,72.6,0
						H36.1c-4.8,0-10.7,1-15.4,8.3C20.1,9.1,2.5,39.3,2.5,39.3z"/>
				</g>
			</g>
		</g>
	</g>
</g>
<path class="st1" d="M41.3,28c7.2,0,11.1,7.8,12.7,11.2C55.7,35.7,59.5,28,66.7,28c4.6,0,9.5,2.9,9.5,9.3c0,7.6-10.5,17.4-22.2,28.9
	C42.3,54.8,31.8,45,31.8,37.3C31.8,31.4,36.1,28,41.3,28z M41.3,23.6c-7.1,0-14,4.9-14,13.8c0,10.4,12.4,20.9,26.7,35.1
	c14.3-14.2,26.7-24.8,26.7-35.1c0-8.9-6.9-13.7-13.9-13.7c-4.9,0-9.9,2.3-12.7,7.2C51.1,25.9,46.2,23.6,41.3,23.6z"/>
</svg>
