<?xml version="1.0" encoding="utf-8"?>
<!-- Generator: Adobe Illustrator 19.2.1, SVG Export Plug-In . SVG Version: 6.00 Build 0)  -->
<svg version="1.1" id="Layer_1" xmlns="http://www.w3.org/2000/svg" xmlns:xlink="http://www.w3.org/1999/xlink" x="0px" y="0px"
	 viewBox="0 0 166 48" enable-background="new 0 0 166 48" xml:space="preserve">
<g>
	<path fill="#FFFFFF" d="M36.6,0H18.4c-2.4,0-5.4,0.5-7.7,4.2c-0.3,0.4-9.1,15.5-9.1,15.5l-0.3,0.5c-0.6,1.1-1,2.4-1,3.8
		s0.4,2.6,1,3.8l0.3,0.5l9.1,15.4c0.1,0.1,0.1,0.3,0.2,0.4c1.5,2.3,4.1,3.9,7.1,3.9h7.1l0.6-2.1l-2.3-3.6l-6.3-0.9l-0.8-0.1l-1-5.6
		l6.3-3.6l0.9-4.1l-4.3-5.8l3.3-4.7l7,1.9l3.6-2.3l0.9-6.3L33,9.9l5.6-1l3.6,6.4l4.1,0.9l3.2-2.4l-5.6-9.6C42.5,1.7,39.8,0,36.6,0z"
		/>
	<ellipse transform="matrix(0.9848 -0.1736 0.1736 0.9848 -5.2918 7.5146)" fill="#FFFFFF" cx="40.3" cy="34" rx="7.9" ry="8"/>
	<polygon fill="#FFFFFF" points="73.6,21.7 69.6,15.2 64.7,15.2 64.7,32 69.3,32 69.3,22.4 73.5,28.9 73.6,28.9 77.9,22.4 77.9,32 
		82.5,32 82.5,15.2 77.6,15.2 	"/>
	<path fill="#FFFFFF" d="M141.3,16.7c-0.6-0.5-1.3-0.9-2.2-1.2c-0.9-0.3-1.8-0.4-2.9-0.4h-7.2V32h4.6v-4.8h2.3c1,0,2-0.1,2.9-0.4
		s1.6-0.6,2.3-1.2c0.6-0.5,1.1-1.1,1.5-1.9c0.4-0.8,0.5-1.6,0.5-2.6v0c0-0.9-0.2-1.8-0.5-2.5C142.4,17.9,141.9,17.3,141.3,16.7z
		 M138.6,21.4c0,0.7-0.2,1.2-0.7,1.6c-0.5,0.4-1.1,0.6-2,0.6h-2.2v-4.4h2.2c0.8,0,1.5,0.2,2,0.6C138.4,20.1,138.6,20.6,138.6,21.4
		L138.6,21.4z"/>
	<path fill="#FFFFFF" d="M94.3,15.1L87.1,32H92l1.2-3h6.5l1.2,3h5l-7.1-16.9H94.3z M94.6,25.4l1.9-4.8l1.9,4.8H94.6z"/>
	<path fill="#FFFFFF" d="M158.5,15.1H154L146.8,32h4.9l1.2-3h6.5l1.2,3h5L158.5,15.1z M154.3,25.4l1.9-4.8l1.9,4.8H154.3z"/>
	<path fill="#FFFFFF" d="M122.2,23.3c-0.5-0.4-1.2-0.7-2-1c-0.8-0.3-1.6-0.5-2.6-0.7c-0.6-0.1-1-0.3-1.4-0.4
		c-0.4-0.1-0.7-0.2-0.9-0.4c-0.2-0.1-0.4-0.3-0.5-0.4c-0.1-0.1-0.1-0.3-0.1-0.5v0c0-0.3,0.1-0.6,0.4-0.8c0.3-0.2,0.7-0.3,1.3-0.3
		c0.7,0,1.5,0.1,2.3,0.4s1.6,0.7,2.4,1.2l2.3-3.3c-0.9-0.7-1.9-1.3-3.1-1.7c-1.1-0.4-2.4-0.6-3.8-0.6c-1,0-1.9,0.1-2.7,0.4
		c-0.8,0.3-1.5,0.6-2,1.1c-0.6,0.5-1,1-1.3,1.7s-0.4,1.4-0.4,2.2v0c0,0.9,0.2,1.6,0.5,2.2s0.8,1.1,1.3,1.5c0.6,0.4,1.2,0.7,2,1
		c0.8,0.2,1.6,0.5,2.5,0.7c0.6,0.1,1,0.3,1.4,0.4c0.4,0.1,0.6,0.2,0.9,0.4c0.2,0.1,0.4,0.3,0.4,0.4s0.1,0.3,0.1,0.5v0
		c0,0.4-0.2,0.7-0.5,0.9c-0.3,0.2-0.8,0.3-1.4,0.3c-1.9,0-3.8-0.7-5.4-2l-2.6,3.1c1,0.9,2.2,1.6,3.6,2.1c1.3,0.5,2.8,0.7,4.3,0.7
		c1,0,1.9-0.1,2.8-0.4c0.8-0.2,1.5-0.6,2.1-1.1c0.6-0.5,1-1,1.4-1.7c0.3-0.7,0.5-1.4,0.5-2.3v0c0-0.8-0.1-1.5-0.4-2
		S122.7,23.7,122.2,23.3z"/>
</g>
</svg>
